<svg width="91" height="23" viewBox="0 0 91 23" fill="none" xmlns="http://www.w3.org/2000/svg">
<path d="M7.392 22.72C6.176 22.72 4.96 22.6773 3.744 22.592C2.54934 22.528 1.30134 22.3573 2.6226e-06 22.08V0.576006C1.024 0.384006 2.144 0.245339 3.36 0.160006C4.576 0.053339 5.70667 5.72205e-06 6.752 5.72205e-06C8.16 5.72205e-06 9.45067 0.106672 10.624 0.320005C11.8187 0.512005 12.8427 0.853339 13.696 1.34401C14.5493 1.83467 15.2107 2.48534 15.68 3.29601C16.1707 4.08534 16.416 5.06667 16.416 6.24001C16.416 8.01067 15.5627 9.40801 13.856 10.432C15.264 10.9653 16.224 11.6907 16.736 12.608C17.248 13.5253 17.504 14.56 17.504 15.712C17.504 18.0373 16.6507 19.7867 14.944 20.96C13.2587 22.1333 10.7413 22.72 7.392 22.72ZM4.864 12.768V18.496C5.22667 18.5387 5.62134 18.5707 6.048 18.592C6.47467 18.6133 6.944 18.624 7.456 18.624C8.94934 18.624 10.1547 18.4107 11.072 17.984C11.9893 17.5573 12.448 16.768 12.448 15.616C12.448 14.592 12.064 13.8667 11.296 13.44C10.528 12.992 9.42934 12.768 8 12.768H4.864ZM4.864 8.96001H7.296C8.832 8.96001 9.93067 8.76801 10.592 8.38401C11.2533 7.97867 11.584 7.33867 11.584 6.46401C11.584 5.56801 11.2427 4.93867 10.56 4.57601C9.87734 4.21334 8.87467 4.03201 7.552 4.03201C7.12534 4.03201 6.66667 4.04267 6.176 4.06401C5.68534 4.06401 5.248 4.08534 4.864 4.12801V8.96001ZM36.924 13.984C36.924 15.3067 36.732 16.5227 36.348 17.632C35.964 18.72 35.4093 19.6587 34.684 20.448C33.9587 21.216 33.084 21.8133 32.06 22.24C31.0573 22.6667 29.9267 22.88 28.668 22.88C27.4307 22.88 26.3 22.6667 25.276 22.24C24.2733 21.8133 23.4093 21.216 22.684 20.448C21.9587 19.6587 21.3933 18.72 20.988 17.632C20.5827 16.5227 20.38 15.3067 20.38 13.984C20.38 12.6613 20.5827 11.456 20.988 10.368C21.4147 9.28001 21.9907 8.35201 22.716 7.58401C23.4627 6.81601 24.3373 6.21867 25.34 5.79201C26.364 5.36534 27.4733 5.15201 28.668 5.15201C29.884 5.15201 30.9933 5.36534 31.996 5.79201C33.02 6.21867 33.8947 6.81601 34.62 7.58401C35.3453 8.35201 35.9107 9.28001 36.316 10.368C36.7213 11.456 36.924 12.6613 36.924 13.984ZM32.06 13.984C32.06 12.512 31.7613 11.36 31.164 10.528C30.588 9.67467 29.756 9.24801 28.668 9.24801C27.58 9.24801 26.7373 9.67467 26.14 10.528C25.5427 11.36 25.244 12.512 25.244 13.984C25.244 15.456 25.5427 16.6293 26.14 17.504C26.7373 18.3573 27.58 18.784 28.668 18.784C29.756 18.784 30.588 18.3573 31.164 17.504C31.7613 16.6293 32.06 15.456 32.06 13.984ZM40.4575 1.40801L45.2255 0.640005V5.60001H50.9535V9.56801H45.2255V15.488C45.2255 16.4907 45.3962 17.2907 45.7375 17.888C46.1002 18.4853 46.8148 18.784 47.8815 18.784C48.3935 18.784 48.9162 18.7413 49.4495 18.656C50.0042 18.5493 50.5055 18.4107 50.9535 18.24L51.6255 21.952C51.0495 22.1867 50.4095 22.3893 49.7055 22.56C49.0015 22.7307 48.1375 22.816 47.1135 22.816C45.8122 22.816 44.7348 22.6453 43.8815 22.304C43.0282 21.9413 42.3455 21.4507 41.8335 20.832C41.3215 20.192 40.9588 19.424 40.7455 18.528C40.5535 17.632 40.4575 16.64 40.4575 15.552V1.40801ZM77.6918 22.432C77.4571 21.664 77.1904 20.8747 76.8918 20.064C76.6144 19.2533 76.3371 18.4427 76.0598 17.632H67.4198C67.1424 18.4427 66.8544 19.2533 66.5558 20.064C66.2784 20.8747 66.0224 21.664 65.7878 22.432H60.6038C61.4358 20.0427 62.2251 17.8347 62.9718 15.808C63.7184 13.7813 64.4438 11.872 65.1478 10.08C65.8731 8.28801 66.5771 6.59201 67.2598 4.99201C67.9638 3.37067 68.6891 1.79201 69.4358 0.256006H74.2038C74.9291 1.79201 75.6438 3.37067 76.3478 4.99201C77.0518 6.59201 77.7558 8.28801 78.4598 10.08C79.1851 11.872 79.9211 13.7813 80.6678 15.808C81.4144 17.8347 82.2038 20.0427 83.0358 22.432H77.6918ZM71.7078 5.28001C71.6011 5.60001 71.4411 6.03734 71.2278 6.59201C71.0144 7.14667 70.7691 7.78667 70.4918 8.51201C70.2144 9.23734 69.9051 10.0373 69.5638 10.912C69.2438 11.7867 68.9131 12.704 68.5718 13.664H74.8758C74.5344 12.704 74.2038 11.7867 73.8838 10.912C73.5638 10.0373 73.2544 9.23734 72.9558 8.51201C72.6784 7.78667 72.4331 7.14667 72.2198 6.59201C72.0064 6.03734 71.8358 5.60001 71.7078 5.28001ZM85.9063 0.256006H90.8983V22.432H85.9063V0.256006Z" fill="#9785BA"/>
</svg>
